<svg xmlns="http://www.w3.org/2000/svg" xmlns:xlink="http://www.w3.org/1999/xlink" version="1.1" x="0px" y="0px" viewBox="0 0 66 82.5" enable-background="new 0 0 66 66" xml:space="preserve"><g><g><g><g><g><path d="M64.2,28.1c-0.2-0.1-3.1-0.9-5.3-1.5c-0.7-2.6-1.7-5.1-3.1-7.4l2.7-4.8c0.2-0.4,0.2-0.9-0.2-1.2       l-5.6-5.6c-0.3-0.3-0.8-0.4-1.2-0.2l-4.9,2.7c-2.3-1.4-4.8-2.4-7.4-3l-1.5-5.4c-0.1-0.4-0.5-0.7-1-0.7h-7.9       c-0.5,0-0.8,0.3-1,0.7l-1.5,5.4c-2.6,0.6-5,1.7-7.4,3.1l-4.9-2.7c-0.4-0.2-0.9-0.2-1.2,0.2l-5.6,5.6c-0.3,0.3-0.4,0.8-0.2,1.2       l2.7,4.8c-1.4,2.3-2.4,4.8-3.1,7.4l-5.3,1.5c-0.4,0.1-0.7,0.5-0.7,1v7.9c0,0.5,0.3,0.8,0.7,1l5.3,1.5c0.7,2.6,1.7,5.1,3.1,7.4       l-2.7,4.8c-0.2,0.4-0.2,0.9,0.2,1.2l5.6,5.6c0.3,0.3,0.8,0.4,1.2,0.2l4.9-2.7c2.3,1.4,4.8,2.4,7.4,3.1l1.5,5.4       c0.1,0.4,0.5,0.7,1,0.7h7.9c0.4,0,0.8-0.3,1-0.7l1.5-5.4c2.6-0.6,5.1-1.7,7.4-3.1l4.9,2.7c0.4,0.2,0.9,0.1,1.2-0.2l5.6-5.6       c0.3-0.3,0.4-0.8,0.2-1.2l-2.7-4.8c1.4-2.3,2.4-4.8,3.1-7.4l5.3-1.5c0.4-0.1,0.7-0.5,0.7-1v-7.8C65,28.6,64.7,28.2,64.2,28.1z        M33,49c-8.8,0-16-7.2-16-16c0-8.8,7.2-16,16-16c8.8,0,16,7.2,16,16C49,41.8,41.8,49,33,49z"/></g></g></g></g><g><g><path d="M27.4,29.3c0-3.1,2.5-5.6,5.6-5.6s5.6,2.5,5.6,5.6c0,3.1-2.5,5.6-5.6,5.6S27.4,32.4,27.4,29.3z"/><path d="M44.3,41.9c-0.2,0.2-0.5,0.4-0.8,0.4H22.4c-0.3,0-0.6-0.1-0.8-0.4c-0.2-0.2-0.3-0.5-0.2-0.8     c0.7-2.8,2.3-5.3,4.6-6.9c0.4-0.3,1-0.2,1.3,0.1c1.4,1.6,3.5,2.5,5.6,2.5c2.1,0,4.2-0.9,5.6-2.5c0.3-0.4,0.9-0.4,1.3-0.1     c2.3,1.7,3.9,4.1,4.6,6.9C44.6,41.4,44.5,41.7,44.3,41.9z"/></g></g></g><text x="0" y="81" fill="#000000" font-size="5px" font-weight="bold" font-family="'Helvetica Neue', Helvetica, Arial-Unicode, Arial, Sans-serif"></text><text x="0" y="86" fill="#000000" font-size="5px" font-weight="bold" font-family="'Helvetica Neue', Helvetica, Arial-Unicode, Arial, Sans-serif"></text></svg>