<svg  xmlns="http://www.w3.org/2000/svg" xmlns:xlink="http://www.w3.org/1999/xlink" xml:space="preserve" version="1.1" style="shape-rendering:geometricPrecision;text-rendering:geometricPrecision;image-rendering:optimizeQuality;" viewBox="0 0 847 1058.75" x="0px" y="0px" fill-rule="evenodd" clip-rule="evenodd"><defs><style type="text/css">.fil0 {fill:black;fill-rule:nonzero}</style></defs><g><path class="fil0" d="M423 12c227,0 412,184 412,411 0,227 -185,412 -412,412 -227,0 -411,-185 -411,-412 0,-227 184,-411 411,-411zm0 469l-148 149c-38,38 -96,-20 -58,-58l148 -149 -148 -148c-38,-38 20,-96 58,-58l148 148 149 -148c38,-38 96,20 58,58l-149 148 149 149c38,38 -20,96 -58,58l-149 -149zm0 -449c-216,0 -391,175 -391,391 0,216 175,392 391,392 216,0 392,-176 392,-392 0,-216 -176,-391 -392,-391z"/></g><text x="0" y="862" fill="#000000" font-size="5px" font-weight="bold" font-family="'Helvetica Neue', Helvetica, Arial-Unicode, Arial, Sans-serif"></text><text x="0" y="867" fill="#000000" font-size="5px" font-weight="bold" font-family="'Helvetica Neue', Helvetica, Arial-Unicode, Arial, Sans-serif"></text></svg>