<svg xmlns="http://www.w3.org/2000/svg" xmlns:xlink="http://www.w3.org/1999/xlink" version="1.1" x="0px" y="0px" viewBox="0 0 100 125" style="enable-background:new 0 0 100 100;" xml:space="preserve"><g><path d="M54.0922852,11.25c-17.6658325,0-32.1099854,14.1811523-32.5354004,31.753479   c-2.4482422,1.574585-3.9523926,4.2637329-3.9523926,7.2098999c0,4.4293823,3.2769775,8.0428467,7.5877686,8.5435181   c0.3866577,0.7507324,0.7964478,1.4849243,1.2369995,2.1937256c-0.0693359-0.0010986-0.1376953-0.0126343-0.2070923-0.0126343   c-7.0961914,0-12.8696289,5.7734375-12.8696289,12.8696289V87.5c0,0.6904297,0.5595703,1.25,1.25,1.25h23.2387695   c0.6904297,0,1.25-0.5595703,1.25-1.25v-9.7651978l6.5356445-2.5062866   c2.7543945,0.7436523,5.6000977,1.1201172,8.465332,1.1201172c17.9511719,0,32.5551758-14.6040039,32.5551758-32.5551758   C86.6474609,25.8491211,72.043457,11.25,54.0922852,11.25z M20.1044922,50.2133789   c0-2.2709961,1.2504883-4.3388672,3.2670898-5.3979492c0.8876953-0.4692383,1.8466797-0.7075195,2.8505859-0.7075195   c3.3730469,0,6.1171875,2.7387695,6.1171875,6.1054688c0,3.3730469-2.7441406,6.1171875-6.1796875,6.1176758   c-0.0454102-0.0063477-0.0913086-0.0102539-0.137207-0.0117188C22.7041016,56.2202148,20.1044922,53.5380859,20.1044922,50.2133789   z M36.5913086,86.25H15.8525391V73.8076172c0-5.7177734,4.6518555-10.3696289,10.3696289-10.3696289   c0.8481445,0,1.6904297,0.1030273,2.5039063,0.3066406c1.8359375,0.4584961,3.5068359,1.4018555,4.8295898,2.7241211   c1.9575195,1.96875,3.0356445,4.574707,3.0356445,7.3388672v3.0678711V86.25z M54.0922852,73.8486328   c-2.7749023,0-5.5292969-0.3823242-8.1870117-1.137207c-0.2597656-0.0742188-0.5356445-0.0615234-0.7890625,0.0356445   l-6.0249023,2.3105469v-1.25c0-3.4291992-1.3364258-6.6616211-3.765625-9.1040039   c-0.3986206-0.3986206-0.8242798-0.7664185-1.2698364-1.1074829c-0.1486206-0.1137695-0.3109741-0.2069092-0.4642944-0.3139648   c-0.3063354-0.2139282-0.6115723-0.4285278-0.9354248-0.6149902c-0.194397-0.1119385-0.4000854-0.2019653-0.6003418-0.303772   c-0.3001709-0.1525879-0.5983887-0.3071899-0.9104004-0.4362183c-0.2232666-0.0924072-0.4545288-0.1637573-0.6832886-0.2437134   c-0.2310791-0.0807495-0.4549561-0.1786499-0.6911011-0.24646c-0.6489258-0.8808594-1.2519531-1.8115234-1.8037109-2.7841797   c0.2617798-0.0540161,0.5184326-0.1218262,0.7709961-0.1990967c0.0820923-0.0251465,0.1611938-0.0565796,0.2422485-0.0841064   c0.1708374-0.0579224,0.3407593-0.1176758,0.5066528-0.1858521c0.0940552-0.0386353,0.1851807-0.0820313,0.2775269-0.1239014   c0.1484375-0.0672607,0.2954712-0.1365967,0.43927-0.2119141c0.0942383-0.0493774,0.1864624-0.1013184,0.2786255-0.1540527   c0.137146-0.0784302,0.2717896-0.1602173,0.4041138-0.2457886c0.0889282-0.0575562,0.177063-0.1156616,0.2637939-0.1763916   c0.1315308-0.0921021,0.2590332-0.1889038,0.3850098-0.2880249c0.0795288-0.062561,0.159729-0.1237793,0.2369385-0.1889648   c0.1328735-0.1122437,0.2598877-0.2306519,0.3857422-0.350647c0.0625-0.0596313,0.1275635-0.116272,0.1882935-0.1776733   c0.173584-0.1755981,0.3400269-0.3580322,0.4981079-0.5478516c0.0083618-0.0100098,0.0178223-0.019165,0.0261841-0.0292358   c0.1653442-0.2003784,0.3201904-0.4094849,0.4671631-0.6243896c0.0474854-0.069397,0.0894165-0.142395,0.1348877-0.2131958   c0.0956421-0.1489868,0.1895752-0.2989502,0.276123-0.4539795c0.0491943-0.0880737,0.0935059-0.1787109,0.1396484-0.2686768   c0.0741577-0.1445923,0.1459351-0.2902832,0.2120361-0.4394531c0.0430298-0.097168,0.0829468-0.1955566,0.1224976-0.2945557   c0.0593262-0.1486816,0.1144409-0.2990112,0.1655884-0.4515381c0.0341797-0.1018677,0.0674438-0.2039185,0.0978394-0.3074341   c0.0466309-0.1586914,0.0866699-0.3197021,0.1242065-0.4820557c0.0232544-0.1005249,0.0480957-0.2001953,0.0678101-0.302063   c0.034668-0.1791382,0.0599976-0.361084,0.083313-0.5439453c0.0113525-0.088623,0.0269165-0.1757202,0.0354614-0.2651978   c0.0262451-0.2732544,0.0419922-0.5494995,0.0419922-0.8294678c0-4.7451172-3.8657227-8.6054688-8.6171875-8.6054688   c-0.3586426,0-0.7130737,0.0223389-1.0629883,0.0652466c-0.1154785,0.0141602-0.2272949,0.0439453-0.3417358,0.0627441   c-0.2322998,0.038147-0.46521,0.0734253-0.6928101,0.1306763c-0.008728,0.0021973-0.0178223,0.0028076-0.0264893,0.0050049   C25.0957031,26.2036133,38.1835938,13.75,54.0922852,13.75c16.5722656,0,30.0551758,13.4775391,30.0551758,30.043457   C84.1474609,60.3657227,70.6645508,73.8486328,54.0922852,73.8486328z"/><path d="M37.6318359,41.9799805c-0.1420898,0.5039063,0.0449219,1.0424805,0.4682617,1.3500977   c0.4233398,0.3081055,0.9931641,0.3193359,1.4287109,0.0283203l4.0239258-2.6855469l4.0234375,2.6855469   c0.2104492,0.140625,0.4521484,0.2104492,0.6938477,0.2104492c0.2583008,0,0.5161133-0.0800781,0.7348633-0.2387695   c0.4233398-0.3076172,0.6103516-0.8461914,0.4682617-1.3500977l-1.3110352-4.65625l3.7978516-2.996582   c0.4106445-0.3242188,0.5761719-0.8701172,0.4145508-1.3676758c-0.1621094-0.4975586-0.6166992-0.8417969-1.1391602-0.862793   l-4.8339844-0.1918945l-1.6762695-4.5375977c-0.1811523-0.4907227-0.6489258-0.8168945-1.1723633-0.8168945   s-0.9912109,0.3261719-1.1723633,0.8168945l-1.6767578,4.5375977l-4.8334961,0.1918945   c-0.5224609,0.0209961-0.9770508,0.3652344-1.1391602,0.862793c-0.1616211,0.4975586,0.0039063,1.043457,0.4145508,1.3676758   l3.7973633,2.996582L37.6318359,41.9799805z M41.6367188,34.3696289c0.5043945-0.0200195,0.9477539-0.3417969,1.1225586-0.815918   l0.793457-2.1464844l0.7929688,2.1464844c0.1748047,0.4741211,0.6181641,0.7958984,1.1225586,0.815918l2.2866211,0.0908203   l-1.7963867,1.4174805c-0.3964844,0.3129883-0.565918,0.8339844-0.4287109,1.3203125l0.6201172,2.2021484l-1.9033203-1.2700195   c-0.4194336-0.2802734-0.9672852-0.2802734-1.3876953,0l-1.9038086,1.2705078l0.6201172-2.2026367   c0.137207-0.4863281-0.0322266-1.0073242-0.4287109-1.3203125l-1.7963867-1.4174805L41.6367188,34.3696289z"/><path d="M72.3149414,32.0966797l-4.8339844-0.1918945l-1.6762695-4.5375977   c-0.1811523-0.4907227-0.6489258-0.8168945-1.1723633-0.8168945s-0.9912109,0.3261719-1.1723633,0.8168945l-1.6767578,4.5375977   l-4.8334961,0.1918945c-0.5224609,0.0209961-0.9770508,0.3652344-1.1391602,0.862793   c-0.1616211,0.4975586,0.0039063,1.043457,0.4145508,1.3676758l3.7973633,2.996582l-1.3110352,4.65625   c-0.1420898,0.5039063,0.0449219,1.0424805,0.4682617,1.3500977c0.4233398,0.3081055,0.9936523,0.3193359,1.4287109,0.0283203   l4.0239258-2.6855469l4.0234375,2.6855469c0.2104492,0.140625,0.4521484,0.2104492,0.6938477,0.2104492   c0.2583008,0,0.5161133-0.0800781,0.7348633-0.2387695c0.4233398-0.3076172,0.6103516-0.8461914,0.4682617-1.3500977   l-1.3110352-4.65625l3.7978516-2.996582c0.4106445-0.3242188,0.5761719-0.8701172,0.4145508-1.3676758   C73.2919922,32.4619141,72.8374023,32.1176758,72.3149414,32.0966797z M67.0380859,35.8779297   c-0.3964844,0.3129883-0.565918,0.8339844-0.4287109,1.3203125l0.6201172,2.2021484l-1.9033203-1.2700195   c-0.4194336-0.2802734-0.9672852-0.2802734-1.3876953,0l-1.9038086,1.2705078l0.6201172-2.2026367   c0.137207-0.4863281-0.0322266-1.0073242-0.4287109-1.3203125l-1.7963867-1.4174805l2.2866211-0.0908203   c0.5043945-0.0200195,0.9477539-0.3417969,1.1225586-0.815918l0.793457-2.1464844l0.7929688,2.1464844   c0.1748047,0.4741211,0.6181641,0.7958984,1.1225586,0.815918l2.2866211,0.0908203L67.0380859,35.8779297z"/><path d="M70.1806641,48.1044922H38.6918945c-0.6904297,0-1.25,0.5595703-1.25,1.25s0.5595703,1.25,1.25,1.25h31.4887695   c0.6904297,0,1.25-0.5595703,1.25-1.25S70.8710938,48.1044922,70.1806641,48.1044922z"/><path d="M70.1806641,53.9614258H45.5268555c-0.6904297,0-1.25,0.5595703-1.25,1.25s0.5595703,1.25,1.25,1.25h24.6538086   c0.6904297,0,1.25-0.5595703,1.25-1.25S70.8710938,53.9614258,70.1806641,53.9614258z"/><path d="M70.1806641,59.8188477H50.121582c-0.6904297,0-1.25,0.5595703-1.25,1.25s0.5595703,1.25,1.25,1.25h20.059082   c0.6904297,0,1.25-0.5595703,1.25-1.25S70.8710938,59.8188477,70.1806641,59.8188477z"/></g><text x="0" y="115" fill="#000000" font-size="5px" font-weight="bold" font-family="'Helvetica Neue', Helvetica, Arial-Unicode, Arial, Sans-serif"></text><text x="0" y="120" fill="#000000" font-size="5px" font-weight="bold" font-family="'Helvetica Neue', Helvetica, Arial-Unicode, Arial, Sans-serif"></text></svg>